<svg height="500" viewBox="0 0 500 500" width="500" xmlns="http://www.w3.org/2000/svg" xmlns:xlink="http://www.w3.org/1999/xlink"><radialGradient id="a" cx="459.15" cy="-45.89" gradientTransform="matrix(.88 -.01 -.01 -.65 -308.22 222.69)" gradientUnits="userSpaceOnUse" r="281.59"><stop offset="0" stop-color="#6edd50"/><stop offset="1" stop-color="#5e953a"/></radialGradient><radialGradient id="b" cx="-3129.85" cy="-1841.11" gradientTransform="matrix(-.33 -.5 -.5 .33 -1756.04 -833.9)" gradientUnits="userSpaceOnUse" r="176.04"><stop offset="0" stop-color="#4d9d7d"/><stop offset="1" stop-color="#4e9366"/></radialGradient><radialGradient id="c" cx="833.43" cy="69.19" gradientTransform="matrix(.88 -.01 -.01 -.65 -308.22 222.69)" gradientUnits="userSpaceOnUse" r="281.59"><stop offset="0" stop-color="#c5856a"/><stop offset=".49" stop-color="#ba8563"/><stop offset="1" stop-color="#848541"/></radialGradient><radialGradient id="d" cx="816.77" cy="-203.93" gradientTransform="matrix(.88 -.01 -.01 -.65 -308.22 222.69)" gradientUnits="userSpaceOnUse" r="281.59"><stop offset="0" stop-color="#7a5a31"/><stop offset="1" stop-color="#674b2a"/></radialGradient><radialGradient id="e" cx="757.92" cy="-308.35" gradientTransform="matrix(.88 -.01 -.01 -.65 -308.22 222.69)" gradientUnits="userSpaceOnUse" r="281.59"><stop offset="0" stop-color="#9b6e97"/><stop offset="1" stop-color="#7c7a9f"/></radialGradient><radialGradient id="f" cx="514.63" cy="-297.93" gradientTransform="matrix(.88 -.01 -.01 -.65 -308.22 222.69)" gradientUnits="userSpaceOnUse" r="281.59"><stop offset="0" stop-color="#33785f"/><stop offset="1" stop-color="#2a674c"/></radialGradient><linearGradient id="g" gradientTransform="matrix(.2 0 0 -.19 -1196.74 142.58)" gradientUnits="userSpaceOnUse" x1="6691.6" x2="6756.59" y1="-881.02" y2="-1013.09"><stop offset="0" stop-color="#1e4b08"/><stop offset="1" stop-color="#3a7a23"/></linearGradient><linearGradient id="h" gradientTransform="matrix(.49 0 0 -.49 -899.07 135.42)" gradientUnits="userSpaceOnUse" x1="2098.49" x2="2201.15" y1="40.59" y2="-36.47"><stop offset="0" stop-color="#266b3f"/><stop offset="1" stop-color="#2d7b54"/></linearGradient><linearGradient id="i" gradientTransform="matrix(.2 0 0 -.19 -1270.58 60.75)" gradientUnits="userSpaceOnUse" x1="7352.4" x2="7455.05" y1="-490.52" y2="-567.57"><stop offset="0" stop-color="#347619"/><stop offset="1" stop-color="#3a7616"/></linearGradient><linearGradient id="j" gradientTransform="matrix(-.47 -.85 -.89 .42 -1895.64 -1237.22)" gradientUnits="userSpaceOnUse" x1="-2341.91" x2="-2239.25" y1="-1103.48" y2="-1180.54"><stop offset="0" stop-color="#3d8a1d"/><stop offset="1" stop-color="#3a7616"/></linearGradient><linearGradient id="k" gradientTransform="matrix(-.36 .44 .31 .47 -2090.95 447.17)" gradientUnits="userSpaceOnUse" x1="-3954.16" x2="-3845.93" y1="3063.18" y2="2981.95"><stop offset="0" stop-color="#3d7013"/><stop offset="1" stop-color="#3a7616"/></linearGradient><linearGradient id="l" gradientTransform="matrix(-2.21 .43 -4.18 -.21 -3187.69 769.68)" gradientUnits="userSpaceOnUse" x1="-1199.64" x2="-1099.18" y1="-171.19" y2="-248.79"><stop offset="0" stop-color="#3c8a1c"/><stop offset="1" stop-color="#386d13"/></linearGradient><linearGradient id="m" gradientTransform="matrix(-.34 2.23 -1.61 3.87 -1456.59 1971.38)" gradientUnits="userSpaceOnUse" x1="1840.47" x2="1823.4" y1="-1470.24" y2="-1468.52"><stop offset="0" stop-color="#2e5d09"/><stop offset="1" stop-color="#376c12"/></linearGradient><linearGradient id="n" gradientTransform="matrix(.2 0 0 -.19 -1168.98 151.47)" gradientUnits="userSpaceOnUse" x1="6657.3" x2="7579.15" y1="-1640.79" y2="-857.79"><stop offset="0" stop-color="#366a11"/><stop offset="1" stop-color="#396d1b"/></linearGradient><linearGradient id="o" gradientTransform="matrix(.2 0 0 -.19 -1296.93 157.59)" gradientUnits="userSpaceOnUse" x1="5643.93" x2="7451.54" y1="-1633.56" y2="-702.49"><stop offset="0" stop-color="#4ba029"/><stop offset="1" stop-color="#3b891b"/></linearGradient><linearGradient id="p" gradientTransform="matrix(-.34 2.23 -1.61 3.87 -1458.58 2013.29)" gradientUnits="userSpaceOnUse" x1="1849.31" x2="1818.52" y1="-1471.99" y2="-1466.63"><stop offset="0" stop-color="#57434f"/><stop offset="1" stop-color="#604661"/></linearGradient><linearGradient id="q" gradientTransform="matrix(.2 0 0 -.19 -1181.85 25.11)" gradientUnits="userSpaceOnUse" x1="7637.4" x2="7769.05" y1="-665.05" y2="-337.33"><stop offset="0" stop-color="#835e31"/><stop offset="1" stop-color="#905e3d"/></linearGradient><linearGradient id="r" gradientTransform="matrix(-.13 .15 .14 .12 -1630.17 171.53)" gradientUnits="userSpaceOnUse" x1="-6509.84" x2="-6390.69" y1="7731.18" y2="8010.16"><stop offset="0" stop-color="#835e31"/><stop offset="1" stop-color="#815f31"/></linearGradient><linearGradient id="s" gradientTransform="matrix(.2 0 0 -.19 -1181.85 24.74)" gradientUnits="userSpaceOnUse" x1="7587.5" x2="6300.35" y1="-684.24" y2="-825.54"><stop offset="0" stop-color="#835e31"/><stop offset="1" stop-color="#6b551b"/></linearGradient><linearGradient id="t" gradientTransform="matrix(.2 0 0 -.19 -1162.73 163.85)" gradientUnits="userSpaceOnUse" x1="8163.45" x2="7799.33" y1="-694.29" y2="-553.21"><stop offset="0" stop-color="#5d3212"/><stop offset="1" stop-color="#4f3208"/></linearGradient><linearGradient id="u" gradientTransform="matrix(.2 0 0 -.19 -1162.73 163.85)" gradientUnits="userSpaceOnUse" x1="6934.49" x2="7687.27" y1="-1371.8" y2="-659.86"><stop offset="0" stop-color="#472b04"/><stop offset="1" stop-color="#4f3208"/></linearGradient><linearGradient id="v" gradientTransform="matrix(.2 0 0 -.19 -1162.98 163.85)" gradientUnits="userSpaceOnUse" x1="6598.86" x2="6691.18" y1="-830.92" y2="-1047.22"><stop offset="0" stop-color="#4d3006"/><stop offset="1" stop-color="#4f3208"/></linearGradient><linearGradient id="w" gradientTransform="matrix(.2 0 0 -.19 -1318.14 167.65)" gradientUnits="userSpaceOnUse" x1="5530.99" x2="7182.6" y1="-1569.09" y2="-835.33"><stop offset="0" stop-color="#0c4c31"/><stop offset="1" stop-color="#06502c"/></linearGradient><radialGradient id="x" cx="4098.08" cy="912.84" gradientTransform="matrix(.33 .1 .2 -.66 -1151.73 579.74)" gradientUnits="userSpaceOnUse" r="284.55"><stop offset="0" stop-color="#5e6826"/><stop offset="1" stop-color="#331d0d"/></radialGradient><radialGradient id="y" cx="-556.49" cy="-3154.92" gradientTransform="matrix(.28 -.57 -.44 -.21 -998.18 -918.52)" gradientUnits="userSpaceOnUse" r="283.89"><stop offset="0" stop-color="#123d1f"/><stop offset="1" stop-color="#396622"/></radialGradient><radialGradient id="z" cx="-5190.65" cy="2420.94" gradientTransform="matrix(-.22 .22 .4 .41 -1827.8 226.34)" gradientUnits="userSpaceOnUse" r="284.71"><stop offset="0" stop-color="#2a300d"/><stop offset="1" stop-color="#4f3119"/></radialGradient><radialGradient id="A" cx="38.81" cy="-1560.31" gradientTransform="matrix(.52 -.36 -.42 -.61 -520.86 -497.72)" gradientUnits="userSpaceOnUse" r="284.29"><stop offset="0" stop-color="#09391d"/><stop offset="1" stop-color="#08391a"/></radialGradient><radialGradient id="B" cx="903.24" cy="289.94" gradientTransform="matrix(.72 .07 .07 -.68 -511.29 547.31)" gradientUnits="userSpaceOnUse" r="284.36"><stop offset="0" stop-color="#3a365a"/><stop offset="1" stop-color="#395437"/></radialGradient><radialGradient id="C" cx="-1202.12" cy="-3342.74" gradientTransform="matrix(.41 -.83 -.43 -.22 -789.04 -1322.48)" gradientUnits="userSpaceOnUse" r="284.51"><stop offset="0" stop-color="#314e0e"/><stop offset="1" stop-color="#1c4719"/></radialGradient><path d="m360 216.3-36.1 170.5-169 15.6-70.4-155.6 122-118.2z" fill="url(#a)" fill-rule="evenodd"/><path d="m222 54.3-93.9 61.7-78 105.9 34.4 25 122-118.3z" fill="url(#b)" fill-rule="evenodd"/><path d="m359.9 216.4 80.8-40.6-86.6-89.8-132.1-31.7-15.5 74.3z" fill="url(#c)" fill-rule="evenodd"/><path d="m359.9 216.4-36.1 170.3 64.9 32.2 61.3-120.9-9.1-122.2z" fill="url(#d)" fill-rule="evenodd"/><path d="m388.6 418.9-64.7-32.1-169 15.6-5.1 35.6 131.3 8.7z" fill="url(#e)" fill-rule="evenodd"/><path d="m89.6 334.4 60.2 103.7 7-39.5-72.3-151.8-34.5-24.9z" fill="url(#f)" fill-rule="evenodd"/><g stroke-linecap="round" stroke-linejoin="round"><path d="m358.5 229-9.3-21.3" fill="#52350b" fill-rule="evenodd" stroke="url(#g)" stroke-width="3.09"/><path d="m129.5 114.9 50.7 39" fill="none" stroke="url(#h)" stroke-width="3.09"/><path d="m180.7 154.1 20.4 15.2" fill="none" stroke="url(#i)" stroke-width="3.09"/><path d="m178.7 290.3 22.3-121.1" fill="none" stroke="url(#j)" stroke-width="3.09"/><path d="m268.3 160.6-66.7 8.5" fill="none" stroke="url(#k)" stroke-width="3.09"/><path d="m179.7 290.5 104.9 61.2" fill="none" stroke="url(#l)" stroke-width="3.09"/><path d="m282.3 388.8 2.5-36.5" fill="none" stroke="url(#m)" stroke-width="3.09"/><path d="m340.8 302.2-56.1 49.4" fill="none" stroke="url(#n)" stroke-width="3.09"/><path d="m120.5 317.4 58.9-27.7" fill="none" stroke="url(#o)" stroke-width="3.09"/><path d="m280 443 2.3-52.4" fill="none" stroke="url(#p)" stroke-width="3.09"/><path d="m352.8 87.2-28.4 67.4" fill="none" stroke="url(#q)" stroke-width="3.09"/><path d="m349.3 207.9-24.2-52.6" fill="none" stroke="url(#r)" stroke-width="3.09"/><path d="m266.7 160.7 57.7-6.6" fill="none" stroke="url(#s)" stroke-width="3.09"/><path d="m376.9 269.2 70.4 26.8" fill="#52350b" fill-rule="evenodd" stroke="url(#t)" stroke-width="3.09"/><path d="m376.9 269.2-32.9 30.4" fill="#52350b" fill-rule="evenodd" stroke="url(#u)" stroke-width="3.09"/><path d="m376.6 269.2-18.1-41" fill="#52350b" fill-rule="evenodd" stroke="url(#v)" stroke-width="3.09"/><path d="m91.9 330.9 27.9-13.1" fill="none" stroke="url(#w)" stroke-width="3.09"/><path d="m325.9 385.4 35.2-171.3 79.5-39.7 9 121.6-61.7 121.7z" fill="none" stroke="url(#x)" stroke-width="3.58"/><path d="m208.1 127.7 14.2-74.3-92.8 61.1-78.8 106.2 35.3 24.2z" fill="none" stroke="url(#y)" stroke-width="3.58"/><path d="m208.1 127.7 152.5 86.6 80-39.9-86.4-89.6-131.8-31.5z" fill="none" stroke="url(#z)" stroke-width="3.58"/><path d="m156.5 399-6.5 37.7-59.8-104.2-39.4-111.7 35.2 24.2z" fill="none" stroke="url(#A)" stroke-width="3.58"/><path d="m324.8 384.9-168.5 14.9-6.3 36.9 130.6 7.3 107.3-26.3z" fill="none" stroke="url(#B)" stroke-width="3.58"/><path d="m208.1 127.7 152.9 86.8-35 170.3-169.2 14.9-70.8-154.7z" fill="none" stroke="url(#C)" stroke-width="3.58"/></g></svg>