<svg xmlns="http://www.w3.org/2000/svg" width="500" height="500" viewBox="0 0 500 500"><defs><style>.a{fill:#766730}.a,.b,.c,.d,.e,.f,.g,.h,.i,.j{fill-rule:evenodd}.b{fill:#68943b}.c{fill:#8c6941}.d{fill:#8f824d}.e{fill:#447f49}.f{fill:#795650}.g{fill:#629c38}.h{fill:#4c9369}.i{fill:#31785a}.j{fill:#485750}.k{isolation:isolate;opacity:.33}.l,.m,.n,.o,.p,.q,.r,.s,.t{fill:none;stroke-linejoin:round}.l{stroke:#39311e}.l,.m,.n,.p,.q,.s,.t{stroke-width:4.53px}.m{stroke:#39420c}.n{stroke:#293003}.o{stroke:#0c411b}.o,.r{stroke-width:4.16px}.p{stroke:#3c671e}.q{stroke:#333720}.r{stroke:#194428}.s{stroke:#513e2a}.t{stroke:#274111}</style></defs><path class="a" d="M354,183.8l95.6,134.8L282,435.7l72-251.9Z"/><path class="b" d="M93.5,252.5l259.5-69L281.7,434Z"/><path class="c" d="M354.4,181.8l37.5-69,57.8,205.4Z"/><path class="d" d="M186.4,54.3l204.1,57.5-37.8,70.3Z"/><path class="e" d="M93.5,254.5l2.5,160,185,19.9L93.5,254.5Z"/><path class="f" d="M449.4,317.9,296.9,445l-13.2-9.6Z"/><path class="g" d="M186.4,57,93.1,251.8l257.6-69.3L186.4,57Z"/><path class="h" d="M185.8,55.3,93.1,250.2,50.3,204.4,185.8,55.3Z"/><path class="i" d="M50,206l42.2,46.2,2.6,161.3L50,206Z"/><path class="j" d="M282,435.4l13.9,9.9L95.8,417.4l186.2,18Z"/><path class="k" d="M188.1,55.3l-4.3.7L215,132,52,201l1.6,4L214,136.3,168.2,313.9l-64.4-64.1-8,2.7,69.7,65.7-71,91.6,2.3,6,72-95.9L296.6,445.7l1-5.7L172.8,317.5,350,271.4,294,442.3l1.9,1.4,3.7-2.7.7-3.3,53.4-166L446.6,322l1.9-5.3-93.8-47.9,36.5-153.1-5.6,6.3L351.7,265.1,220.3,134l168.9-19.9-4.3-4L217.6,131.3l-29.5-76Zm29.5,82L348.7,268.4,170.8,315.2Z"/><path class="l" d="M282.5,434.7l12,9.6c55.6-37.2,104.1-83.3,155.2-126.2L282.5,434.7Z"/><path class="m" d="M282.5,434.7l64.6-229.5s4.5-22.6,9.3-17.5S450,317.8,450,317.8Z"/><path class="n" d="M390.2,112.9,354,184l-69.2-53.8c-4.2-3.4-97.6-74.3-97.6-74.3s1.7-1.2,9.4.6,193.6,55.6,193.6,56.4Z"/><path class="o" d="M50.7,203.7l42.5,48s35.5-76.3,38.1-82,55-113.6,55-113.6-1.3-1.6-7.2,5C176,64.6,50.7,202.6,50.7,203.7Z"/><path class="p" d="M353,183.6,96.7,251.2s-2.4,1.4-1-3.9S186.3,55.9,186.3,55.9l9.4,6.3c6.1,4.2,157.6,120.7,157.3,121.4Z"/><path class="q" d="M281.7,433.9l12.8,10.4L95.8,414.6Z"/><path class="r" d="M282.4,434,95.9,413.8Z"/><path class="s" d="M354.5,183.4l36-69.7s22.8,78.4,24.4,84.1l35,120.1L354.5,183.4Z"/><path class="t" d="M93.4,252l259.7-68.5s1.2-2.6-.6,4.1-69.3,245.6-69.3,245.6.7,4.2-4.2-1.4S93,252.7,93.4,252Z"/><path class="r" d="M50.2,203.9l44.3,47.8s-.2,38.5-.9,44.7,2.5,118,2.5,118-2,.7-3.7-8C91.5,401.8,49.6,204.9,50.2,203.9Z"/></svg>