<svg height="500" viewBox="0 0 500 500" width="500" xmlns="http://www.w3.org/2000/svg"><g fill-rule="evenodd"><g stroke-width=".87"><path d="m326.6 132.1 121.1-67.3-136.9 371.7z" fill="#84573a" stroke="#84563c"/><path d="m54.5 113.8 269.4 20.1-14.7 302.8z" fill="#398153" stroke="#398153"/><path d="m57.9 112.4 386.2-48.8-119.3 68.2z" fill="#748e67" stroke="#748e67"/><path d="m53.3 111.4 393.9-49.7-.9 3.8-391.5 48.8z" fill="#2c4917" stroke="#2c4817"/><path d="m449.8 64.6-138.6 372.2c-.9 2.4-5.3 1.6-4-2l138.2-372.3z" fill="#3f3011" stroke="#3f3011"/><path d="m330.3 133.1-1.8 1.5-17.6 300.8-3.7-.2s11.3-224.9 15.2-301.3c.1-1.9-.4-4.9 3.2-4.8s3.5 1.6 4.7 4z" fill="#1c441f" stroke="#1c441f"/><path d="m50.3 114.5 256.8 323.2c1.6 2.1 5.7.2 3.3-2.9l-256.3-323z" fill="#133c10" stroke="#133c10"/></g><path d="m321.8 134c-.4-2.8.4-4.2 1.4-4.7l-268.7-17.8c-5.1-.2-6.7 3.6-.4 4.4s267.7 18.1 267.7 18.1z" fill="#256e51" stroke="#256e51" stroke-width="1.21"/><path d="m326.2 128.7c2.9.6 3 3.1 2.9 5.5l119.9-68.5c2.1-1.4.6-5.3-2.2-4s-120.6 67-120.6 67z" fill="#432a14" stroke="#432a14" stroke-width=".87"/></g></svg>