<svg height="500" viewBox="0 0 500 500" width="500" xmlns="http://www.w3.org/2000/svg"><g fill-rule="evenodd"><path d="m170.1 32.4v131.7l-115.8 218.9 20.7-153z" fill="#4ea173"/><path d="m75.6 233.3 45.8 16.7 2.2-3.8-47.4-17.9z" fill="#16643c"/><path d="m50.5 388.6a39.3 39.3 0 0 1 .3-8.8c.8-5.6 22.4-150.1 22.4-150.1s4.9-5.8 3.7 1.5-21.4 151.6-21.4 151.6z" fill="#226339"/><path d="m169 159.9 277.3 111.5-142.3 199.8-251.9-82.9z" fill="#81954f" stroke="#000"/><path d="m123.3 250.7 158.6 58.7 3.2-1.6-2.4-1.8-158.3-59.3zm159.1 55.5 50.2-78.6 3.5 1.6-50.2 79.7 20.4 156.7-2.3 4.3-2.2-2.4-19.9-159.1z" fill="#3b5f15"/><path d="m281.5 306.2 2.1-.5 2 1.6-1 2.1h-2.5l-.3-.3z" fill="#3b5f15"/><path d="m444 270.7-140.2 196.6c-5.4-1.2-2.3 2.3-3.2 3.5s2.2 2.3 4.3 1.7 2.8-2.1 5-5.3c5.5-8.2 138.8-194.5 138.8-194.5z" fill="#253a19"/><path d="m172.4 30.6-1.5 130.8 274.9 108.9-47.3-142.8z" fill="#d0986e"/><path d="m396 126.7-61.8 97.7 4 1.1 60.6-96.7z" fill="#90633a"/><path d="m400.2 126.8 49.8 143.5-4.5.2-48.9-142.6s1-3.2 3.6-1.1z" fill="#42462b"/><path d="m76.6 231.2 95.2-195.7-2.3-5.4-96.5 200.9z" fill="#164a24"/><path d="m167.8 158.5a3.1 3.1 0 0 0 2.7 1.8c2.4.2.6-3.6.6-9.2s2.1-123.3 2.1-123.3-3.8-2.5-3.8 4.8-1.5 126.1-1.6 125.9z" fill="#295037"/><path d="m53.2 386.1 248.7 81c1.6 1.7 1.8 3.2 0 4.5l-250.4-81.2z" fill="#2d3a0f"/><path d="m168 158.2-117.7 229.1c-.8 2 .1 3.3 2.8 3.2l119.2-228.5z" fill="#2f512c"/><path d="m448.1 274-277.5-110s-2.7-7 3.1-4.8 275.4 110 275.4 110a3 3 0 0 1 -1 4.8z" fill="#3e4613"/><path d="m170.1 160 2.1-132.5s2.1.1 2.1 3.2-1.6 129-1.6 129a2.5 2.5 0 0 1 -2.6.3z" fill="#554321"/><path d="m397.2 128.7c1-.2 1.7-1.3 1.7-2.8l-225.9-98.2c-.1 1.2-.1 2.2 1.1 4.7z" fill="#474c0c"/></g></svg>